<?xml version="1.0" encoding="UTF-8"?>
<svg width="470px" height="311px" viewBox="0 0 470 311" version="1.1" xmlns="http://www.w3.org/2000/svg" xmlns:xlink="http://www.w3.org/1999/xlink">
    <!-- Generator: Sketch 59.1 (86144) - https://sketch.com -->
    <title>EHF_Primary_logo_1colour_neg</title>
    <desc>Created with Sketch.</desc>
    <defs>
        <polygon id="path-1" points="0.06 0.551 469.244 0.551 469.244 310.94 0.06 310.94"></polygon>
    </defs>
    <g id="Page-1" stroke="none" stroke-width="1" fill="none" fill-rule="evenodd">
        <g id="EHF_Primary_logo_1colour_neg">
            <mask id="mask-2" fill="white">
                <use xlink:href="#path-1"></use>
            </mask>
            <g id="Clip-2"></g>
            <path d="M401.945,165.65 L401.94,109.681 L448.375,98.118 L448.375,67.514 L401.94,79.019 L401.94,49.66 L469.244,32.867 L469.244,0.551 L352.548,29.605 L359.018,37.762 L359.018,166.563 L352.551,177.943 L401.945,165.65 Z M2.454,311 L449.613,247.038 L469.244,186.62 L0,303.448 L2.454,311 Z M274.342,187.619 L274.335,138.08 L216.887,152.383 L216.892,201.922 L216.892,211.712 L167.128,224.113 L173.624,212.694 L173.624,83.893 L167.163,75.76 L216.892,63.38 L216.892,73.121 L216.887,121.765 L274.342,107.461 L274.342,58.818 L267.89,50.682 L317.243,38.395 L317.243,186.739 L267.854,199.035 L274.342,187.619 Z M137.555,231.476 L137.555,200.115 L118.791,204.786 L72.012,216.434 L72.012,188.472 L118.774,176.825 L118.774,146.163 L72.012,157.805 L72.791,131.781 L128.17,117.784 L137.555,115.448 L137.555,83.132 L22.621,111.747 L29.085,119.906 L29.087,248.707 L22.621,260.092 L137.555,231.476 L137.555,231.476 Z" id="Fill-1" fill="#FFFFFE" mask="url(#mask-2)"></path>
        </g>
    </g>
</svg>